HIERARCHY
ROOT Hips
{
	OFFSET 0.000000 0.000000 0.000000
	CHANNELS 6 Xposition Yposition Zposition Xrotation Yrotation Zrotation
	JOINT Chest
	{
		OFFSET 0.000000 0.009282 11.569106
		CHANNELS 3 Xrotation Yrotation Zrotation
		JOINT Chest2
		{
			OFFSET 0.000000 -0.016863 9.269641
			CHANNELS 3 Xrotation Yrotation Zrotation
			JOINT Chest3
			{
				OFFSET 0.000000 0.000000 8.374491
				CHANNELS 3 Xrotation Yrotation Zrotation
				JOINT Chest4
				{
					OFFSET 0.000000 0.000000 8.374493
					CHANNELS 3 Xrotation Yrotation Zrotation
					JOINT Neck
					{
						OFFSET 0.000000 -0.000001 12.152554
						CHANNELS 3 Xrotation Yrotation Zrotation
						JOINT Head
						{
							OFFSET 0.000000 -0.040100 7.802319
							CHANNELS 3 Xrotation Yrotation Zrotation
							End Site
							{
								OFFSET 0.000000 -0.020946 14.853096
							}
						}
					}
					JOINT RightCollar
					{
						OFFSET -2.894404 0.000000 6.791374
						CHANNELS 3 Xrotation Yrotation Zrotation
						JOINT RightShoulder
						{
							OFFSET -13.574684 0.000000 0.000000
							CHANNELS 3 Xrotation Yrotation Zrotation
							JOINT RightElbow
							{
								OFFSET -23.923903 0.000000 0.000000
								CHANNELS 3 Xrotation Yrotation Zrotation
								JOINT RightWrist
								{
									OFFSET -19.846718 -0.012765 0.000000
									CHANNELS 3 Xrotation Yrotation Zrotation
									End Site
									{
										OFFSET -14.973145 0.000000 0.000000
									}
								}
							}
						}
					}
					JOINT LeftCollar
					{
						OFFSET 2.894404 0.000000 6.791374
						CHANNELS 3 Xrotation Yrotation Zrotation
						JOINT LeftShoulder
						{
							OFFSET 13.574684 0.000000 0.000000
							CHANNELS 3 Xrotation Yrotation Zrotation
							JOINT LeftElbow
							{
								OFFSET 23.923903 0.000000 0.000000
								CHANNELS 3 Xrotation Yrotation Zrotation
								JOINT LeftWrist
								{
									OFFSET 19.846718 -0.012765 0.000000
									CHANNELS 3 Xrotation Yrotation Zrotation
									End Site
									{
										OFFSET 14.973145 0.000000 0.000000
									}
								}
							}
						}
					}
				}
			}
		}
	}
	JOINT RightHip
	{
		OFFSET -9.469263 -0.004642 0.045487
		CHANNELS 3 Xrotation Yrotation Zrotation
		JOINT RightKnee
		{
			OFFSET 0.000000 -0.002666 -40.478676
			CHANNELS 3 Xrotation Yrotation Zrotation
			JOINT RightAnkle
			{
				OFFSET 0.000000 -0.049110 -35.224068
				CHANNELS 3 Xrotation Yrotation Zrotation
				JOINT RightToe
				{
					OFFSET 0.000000 -12.539530 -6.151390
					CHANNELS 3 Xrotation Yrotation Zrotation
					End Site
					{
						OFFSET 0.000000 -5.044995 -1.291870
					}
				}
			}
		}
	}
	JOINT LeftHip
	{
		OFFSET 9.469263 -0.004642 0.045487
		CHANNELS 3 Xrotation Yrotation Zrotation
		JOINT LeftKnee
		{
			OFFSET 0.000000 -0.002666 -40.478676
			CHANNELS 3 Xrotation Yrotation Zrotation
			JOINT LeftAnkle
			{
				OFFSET 0.000000 -0.049110 -35.224068
				CHANNELS 3 Xrotation Yrotation Zrotation
				JOINT LeftToe
				{
					OFFSET 0.000000 -12.539530 -6.151390
					CHANNELS 3 Xrotation Yrotation Zrotation
					End Site
					{
						OFFSET 0.000000 -5.044995 -1.291870
					}
				}
			}
		}
	}
}
MOTION
Frames: 9
Frame Time: 0.016667
9.758981 -4.195672 83.509323 -2.341307 2.526284 -107.171644 1.600915 -1.877957 -6.326495 0.770182 -0.696114 -2.933375 0.770183 -0.696115 -2.933365 0.580988 -0.518406 -2.200875 22.225751 1.106836 0.401495 5.081795 1.916045 1.040785 -1.542104 -10.149132 -2.940579 -44.881805 -60.051167 -53.546921 -29.524145 0.873642 3.587144 -19.013758 0.772869 3.570868 5.212631 9.607855 -4.247015 1.779910 75.303792 -15.550517 -5.207425 4.335108 -6.115219 -2.092172 -9.269003 -19.914914 -11.265356 -4.398958 2.561961 2.304813 -1.226348 -14.121051 -7.607826 -16.402295 12.458758 0.826466 0.628545 -0.184185 10.260189 12.597646 -3.187437 14.115791 5.623221 18.109553 14.187432 -2.621513 -4.290911 -39.633723 -8.353161 -2.999614 
9.758981 -4.195672 83.509323 -2.341307 2.526284 -107.171644 1.600915 -1.877957 -6.326495 0.770182 -0.696114 -2.933375 0.770183 -0.696115 -2.933365 0.580988 -0.518406 -2.200875 22.225751 1.106836 0.401495 5.081795 1.916045 1.040785 -1.542104 -10.149132 -2.940579 -44.881805 -60.051167 -53.546921 -29.524145 0.873642 3.587144 -19.013758 0.772869 3.570868 5.212631 9.607855 -4.247015 1.779910 75.303792 -15.550517 -5.207425 4.335108 -6.115219 -2.092172 -9.269003 -19.914914 -11.265356 -4.398958 2.561961 2.304813 -1.226348 -14.121051 -7.607826 -16.402295 12.458758 0.826466 0.628545 -0.184185 10.260189 12.597646 -3.187437 14.115791 5.623221 18.109553 14.187432 -2.621513 -4.290911 -39.633723 -8.353161 -2.999614 
9.076131 -3.996219 83.576904 -2.168883 2.348517 -106.722928 1.539463 -1.902520 -6.402791 0.743160 -0.688268 -2.967930 0.743160 -0.688267 -2.967923 0.560722 -0.512606 -2.226756 22.245588 0.907968 0.320170 5.121532 1.574437 0.836672 -1.670594 -10.089485 -3.029900 -43.960433 -58.798203 -53.247506 -27.734181 1.683646 2.621370 -17.267331 0.186316 2.566224 5.250971 9.580939 -4.385918 3.475083 75.169012 -17.872114 -5.107091 4.655714 -6.537909 -2.169807 -9.174034 -19.911318 -10.846690 -4.480991 2.234408 2.195607 -1.320128 -13.926857 -7.343812 -16.154810 12.505334 0.217596 0.443640 -0.116129 10.519091 12.303817 -3.428590 14.114073 5.437375 18.011296 15.248252 -2.705062 -4.538595 -40.901024 -8.329919 -3.083434 
8.373176 -3.794289 83.645073 -1.992500 2.219546 -106.247363 1.494050 -1.903097 -6.477236 0.720271 -0.678021 -2.992430 0.720271 -0.678021 -2.992432 0.543532 -0.505004 -2.245090 22.274300 0.687011 0.227720 5.177449 1.195429 0.606160 -1.806934 -10.033598 -3.114817 -43.112506 -57.355974 -52.967386 -25.452772 2.435498 1.565207 -15.526569 -0.413833 1.590261 5.256139 9.550084 -4.515833 5.406659 74.990081 -20.409418 -5.075498 4.923111 -6.874098 -2.156329 -9.071395 -19.830466 -10.400711 -4.570508 1.807693 2.099709 -1.432808 -13.596571 -6.967485 -15.735624 12.370843 -0.399504 0.265111 -0.044558 10.777941 12.016501 -3.644591 14.188625 5.248815 17.946867 16.402875 -2.890145 -4.845422 -42.293535 -8.261097 -3.157377 
7.660769 -3.569645 83.710083 -1.797833 2.134707 -105.751730 1.453815 -1.899402 -6.549157 0.701254 -0.666074 -3.009698 0.701254 -0.666073 -3.009693 0.529230 -0.496117 -2.258012 22.315015 0.445991 0.128217 5.254967 0.781520 0.357298 -1.880430 -9.972134 -3.180735 -42.228191 -55.849470 -52.531900 -22.638626 3.156169 0.370610 -13.867021 -1.096790 0.513827 5.184590 9.553100 -4.606756 7.548663 74.746360 -23.055088 -5.083128 5.139738 -7.144865 -2.071151 -8.976754 -19.720815 -9.888852 -4.658723 1.301302 1.990586 -1.564180 -13.193360 -6.504768 -15.210898 12.161704 -0.994659 0.089923 0.029699 11.027440 11.706897 -3.862590 14.351361 5.072319 17.918499 17.636819 -3.060142 -5.096900 -43.813130 -8.163008 -3.226555 
6.932404 -3.335178 83.771164 -1.603311 2.088066 -105.232356 1.445217 -1.865158 -6.611647 0.696935 -0.648733 -3.017645 0.696936 -0.648732 -3.017641 0.525915 -0.483122 -2.263957 22.340611 0.170637 0.023560 5.303652 0.306028 0.089939 -2.034962 -9.939572 -3.269639 -41.184169 -54.397314 -51.934737 -19.331329 3.872100 -0.879273 -12.121909 -1.912122 -0.654058 5.085039 9.526727 -4.701837 9.623212 74.481724 -25.641783 -5.111670 5.295034 -7.351321 -1.953749 -8.883914 -19.599800 -9.362507 -4.736630 0.749843 1.918824 -1.752553 -12.990530 -5.870481 -14.628798 12.281611 -1.582558 -0.052591 0.103144 11.265218 11.401077 -4.115302 14.589267 4.886295 17.899976 18.946723 -3.264256 -5.344761 -45.433599 -8.044949 -3.290661 
6.209668 -3.092882 83.826706 -1.407426 2.063761 -104.728418 1.460130 -1.822132 -6.657336 0.705777 -0.633988 -3.021781 0.705777 -0.633987 -3.021769 0.532477 -0.472014 -2.267041 22.342553 -0.103996 -0.078422 5.307296 -0.168942 -0.172141 -2.219811 -9.892761 -3.320742 -40.029775 -53.067534 -51.220237 -15.856113 4.510829 -2.128577 -10.170001 -2.758205 -1.821303 4.948594 9.509591 -4.756444 11.437777 74.235455 -27.953502 -5.116423 5.396155 -7.529623 -1.819879 -8.796436 -19.474488 -8.866814 -4.799864 0.240705 1.963299 -1.985243 -12.879817 -5.346227 -13.945998 12.195573 -2.085440 -0.214766 0.149831 11.481913 11.097497 -4.389300 14.869663 4.704554 17.846873 20.305193 -3.426647 -5.486637 -47.112640 -7.921821 -3.352044 
5.485529 -2.839412 83.873764 -1.186698 2.064854 -104.249724 1.492080 -1.783419 -6.679402 0.721836 -0.620114 -3.019985 0.721836 -0.620115 -3.019991 0.544452 -0.461533 -2.265710 22.328542 -0.366704 -0.178778 5.280316 -0.622478 -0.428038 -2.369590 -9.879361 -3.287426 -38.844252 -51.782130 -50.421474 -12.419320 5.009939 -3.367137 -8.252003 -3.504391 -3.000075 4.837886 9.475728 -4.801423 12.938147 74.016602 -29.954758 -5.138947 5.473303 -7.676622 -1.681575 -8.740415 -19.372952 -8.408490 -4.906299 -0.214682 2.109677 -2.232461 -12.661084 -4.782854 -13.223839 12.111478 -2.572996 -0.341074 0.196498 11.700018 10.760797 -4.698447 15.178625 4.558315 17.777884 21.681582 -3.596104 -5.567948 -48.821089 -7.793491 -3.411865 
4.768488 -2.576655 83.911125 -0.976283 2.097299 -103.790981 1.549653 -1.716151 -6.678962 0.747793 -0.603919 -3.009662 0.747792 -0.603919 -3.009666 0.563829 -0.449268 -2.257972 22.294156 -0.617993 -0.277707 5.214560 -1.055350 -0.678500 -2.485325 -9.885374 -3.245575 -37.682232 -50.594254 -49.555130 -9.095130 5.410955 -4.539191 -6.640541 -4.221363 -4.183432 4.679480 9.427628 -4.833161 14.230520 73.833382 -31.671833 -5.196520 5.531226 -7.801104 -1.597581 -8.724673 -19.327200 -7.958015 -5.019430 -0.623062 2.335477 -2.455199 -12.388678 -4.291438 -12.471324 11.833778 -2.999232 -0.471668 0.236263 11.903136 10.430102 -5.034681 15.534123 4.441548 17.711620 23.081718 -3.916710 -5.715816 -50.558761 -7.651304 -3.467067 
